<?xml version="1.0" standalone="no"?>
<!DOCTYPE svg PUBLIC "-//W3C//DTD SVG 20010904//EN"
 "http://www.w3.org/TR/2001/REC-SVG-20010904/DTD/svg10.dtd">
<svg version="1.0" xmlns="http://www.w3.org/2000/svg"
 width="300.000000pt" height="183.000000pt" viewBox="0 0 300.000000 183.000000"
 preserveAspectRatio="xMidYMid meet">
<metadata>
Created by potrace 1.10, written by Peter Selinger 2001-2011
</metadata>
<g transform="translate(0.000000,183.000000) scale(0.100000,-0.100000)"
fill="#000000" stroke="none">
<path d="M562 1820 c-21 -5 -55 -31 -100 -77 -76 -80 -156 -124 -267 -149 -92
-20 -135 -42 -162 -83 -30 -44 -31 -111 -2 -157 23 -37 44 -52 102 -69 l38
-11 2 -357 2 -357 -50 -15 c-76 -22 -115 -72 -115 -147 0 -51 28 -101 67 -121
15 -8 55 -22 88 -32 117 -33 204 -88 241 -151 32 -55 55 -74 99 -84 69 -16
104 -2 164 63 31 33 83 77 115 98 l59 38 39 -34 c160 -136 419 -165 602 -67
68 36 155 126 185 189 23 49 25 51 45 38 12 -9 44 -15 76 -15 68 0 122 30 156
85 l23 38 7 -29 c14 -60 68 -150 123 -204 152 -152 417 -184 632 -75 141 72
259 248 259 388 0 28 -3 48 -6 45 -3 -4 -14 -41 -25 -84 -26 -106 -52 -155
-115 -224 -76 -82 -184 -136 -308 -155 -61 -9 -36 5 37 20 227 47 377 234 377
469 0 240 -149 428 -382 482 -52 11 -55 13 -18 9 119 -12 239 -77 310 -166 56
-71 74 -110 95 -199 24 -109 34 -126 34 -64 2 98 -54 229 -132 313 -79 84
-222 149 -339 154 -56 2 -70 9 -47 23 6 3 20 27 32 53 16 35 21 67 21 136 0
79 -3 97 -26 141 -83 159 -271 202 -388 89 -31 -30 -44 -35 -120 -45 -106 -14
-248 -51 -323 -84 -51 -22 -56 -23 -47 -6 5 10 10 39 10 63 0 56 -32 105 -84
131 -35 17 -44 18 -130 5 -137 -21 -343 -16 -441 10 -109 29 -190 70 -254 130
-32 30 -64 51 -77 51 -12 0 -28 2 -36 4 -7 2 -28 0 -46 -4z m71 -26 c18 -10
52 -35 77 -56 25 -22 63 -51 86 -64 47 -28 174 -74 203 -74 11 0 23 -4 26 -10
8 -13 10 -14 -91 16 -104 29 -180 70 -248 130 -72 66 -99 62 -186 -23 -78 -78
-177 -136 -270 -157 -81 -19 -66 -6 26 22 91 28 178 85 235 152 35 42 73 70
107 79 2 1 17 -6 35 -15z m51 -93 c67 -58 153 -102 261 -132 68 -20 105 -23
245 -24 91 0 201 4 246 9 80 9 81 9 102 -19 12 -15 22 -36 22 -46 0 -10 -27
-60 -60 -111 -33 -51 -60 -95 -60 -98 0 -3 25 -30 55 -60 38 -38 55 -62 55
-80 0 -29 -25 -70 -43 -70 -23 0 -193 -90 -224 -120 -18 -16 -33 -39 -33 -51
0 -31 -17 -57 -50 -74 -16 -8 -63 -46 -104 -85 -42 -38 -84 -70 -94 -70 -27 0
-60 27 -82 68 l-19 37 -1 -131 c0 -148 -1 -145 77 -173 53 -19 71 -48 59 -95
-7 -29 -33 -43 -131 -71 -99 -28 -194 -84 -267 -157 -75 -75 -104 -84 -138
-45 -109 124 -116 129 -195 167 -44 21 -104 44 -133 51 -56 14 -92 45 -92 81
0 28 54 78 83 78 14 0 39 12 56 26 l31 26 -2 391 -3 391 -34 23 c-19 13 -46
23 -62 23 -18 0 -35 9 -48 26 -24 31 -26 43 -10 78 14 29 20 32 122 57 132 32
240 95 320 186 52 59 79 58 151 -6z m907 -154 c7 -12 9 -45 6 -78 -4 -43 -1
-61 9 -70 16 -13 14 -13 149 34 78 27 149 44 125 29 -8 -6 -44 -17 -80 -26
-81 -21 -237 -96 -269 -129 l-23 -26 40 -42 40 -43 83 41 c140 69 246 96 421
109 51 4 98 11 105 16 6 5 15 23 18 39 20 92 135 36 135 -66 0 -107 -86 -167
-131 -91 -25 42 -34 46 -88 36 -102 -19 -86 -73 56 -178 48 -36 109 -92 100
-92 -19 0 -210 165 -232 200 -13 21 -28 41 -34 44 -24 15 -252 -75 -285 -112
-18 -21 -18 -23 -1 -42 17 -19 17 -21 0 -40 -18 -20 -18 -21 10 -50 18 -19 39
-30 56 -30 14 0 41 -3 58 -6 30 -6 31 -8 16 -24 -19 -21 -11 -42 24 -74 41
-38 29 -73 -64 -182 -47 -54 -85 -106 -85 -114 0 -8 9 -29 20 -47 15 -25 16
-31 4 -26 -20 8 -34 36 -34 71 0 22 18 50 75 115 115 131 116 142 14 227 -63
53 -64 53 -119 50 -30 -2 -33 0 -21 14 20 23 -1 63 -35 72 -64 16 -284 -109
-284 -161 0 -9 11 -20 24 -26 19 -9 31 -6 67 16 l44 27 -34 -36 -35 -36 33
-45 c47 -66 71 -126 78 -199 12 -130 -35 -257 -116 -312 -53 -36 -60 -29 -9 9
29 22 54 55 78 101 32 63 35 75 34 160 0 98 -17 154 -70 223 -42 56 -58 59
-103 18 -30 -27 -91 -101 -128 -154 -2 -2 -6 -1 -9 2 -9 9 14 42 85 120 64 70
68 83 37 101 -15 9 -24 3 -58 -34 -22 -25 -57 -69 -76 -98 -33 -49 -38 -53
-67 -48 -26 5 -36 1 -65 -29 -32 -33 -33 -36 -20 -61 17 -31 106 -92 147 -100
47 -9 98 21 141 82 20 30 40 54 45 54 14 0 8 -150 -8 -180 -19 -36 -62 -70
-89 -70 -16 1 -14 4 11 15 34 14 73 67 73 98 0 27 -16 20 -30 -14 -18 -43 -52
-62 -113 -62 -68 0 -123 28 -149 76 -7 14 0 12 31 -9 72 -47 171 -42 221 11
33 35 22 38 -35 10 -62 -32 -98 -31 -164 1 -47 24 -54 25 -68 12 -13 -14 -13
-19 1 -46 18 -34 63 -70 104 -82 15 -5 19 -9 10 -9 -9 -1 -29 4 -44 9 -33 13
-54 -3 -73 -55 -12 -34 -11 -39 11 -62 l23 -25 -40 20 c-32 16 -49 19 -83 12
-56 -10 -85 -35 -71 -62 22 -41 169 -115 239 -120 16 -1 30 -6 30 -10 0 -8
-16 -6 -95 14 -55 14 -132 54 -182 94 -23 19 -50 34 -61 34 -29 0 -133 -72
-175 -121 -20 -24 -56 -55 -79 -70 l-43 -25 -42 24 c-23 13 -51 38 -63 56 -27
44 -99 110 -147 134 -21 11 -77 32 -125 46 -105 32 -128 55 -128 126 0 60 26
95 83 111 74 22 73 19 81 222 9 243 -2 544 -21 563 -8 7 -32 18 -55 24 -59 16
-88 52 -88 110 0 32 6 55 20 73 20 25 86 54 97 43 4 -3 0 -6 -8 -6 -8 0 -31
-14 -52 -31 -33 -27 -37 -36 -37 -75 0 -57 37 -99 96 -110 21 -3 45 -11 52
-17 9 -7 12 -97 12 -388 l0 -379 -22 -14 c-13 -8 -38 -17 -55 -21 -46 -9 -83
-57 -83 -106 0 -59 36 -91 140 -123 95 -28 193 -86 230 -135 62 -82 78 -94
121 -88 32 4 52 17 103 69 72 73 166 127 273 156 39 11 80 25 92 31 26 14 51
61 51 95 0 36 -52 90 -100 105 l-40 12 0 75 0 75 22 -15 c43 -31 74 -21 147
48 37 35 86 75 109 90 40 25 72 69 72 100 0 23 72 73 170 118 101 47 119 67
120 128 0 41 -5 50 -45 90 -25 24 -45 50 -45 58 0 7 23 46 50 87 41 61 50 82
50 119 0 37 -5 48 -31 70 -17 14 -38 26 -47 26 -14 0 -14 2 -3 9 17 11 77 -23
92 -52z m-141 49 c0 -2 -11 -6 -25 -8 -13 -3 -22 -1 -19 3 5 9 44 13 44 5z
m920 -31 c57 -29 104 -87 121 -149 17 -62 5 -163 -27 -229 l-28 -57 24 -25 23
-25 -35 0 c-58 0 -64 19 -24 79 87 129 74 278 -30 370 -87 76 -180 76 -253 0
-21 -23 -46 -39 -54 -37 -21 4 64 77 111 95 48 17 110 10 172 -22z m-1297 18
c-7 -2 -19 -2 -25 0 -7 3 -2 5 12 5 14 0 19 -2 13 -5z m316 3 c-2 -2 -22 -6
-44 -9 -27 -4 -35 -3 -25 3 14 9 79 15 69 6z m-136 -13 c-23 -2 -64 -2 -90 0
-26 2 -7 3 42 3 50 0 71 -1 48 -3z m1051 -24 c49 -14 122 -80 137 -127 32 -96
-6 -239 -75 -284 l-31 -21 33 -33 c32 -32 37 -34 107 -34 178 0 323 -89 401
-246 40 -81 53 -167 42 -277 -20 -196 -177 -348 -388 -376 -231 -31 -423 84
-484 288 -23 78 -21 213 4 293 18 59 19 64 3 76 -24 18 -33 15 -33 -11 0 -33
-28 -80 -93 -152 -56 -62 -58 -66 -43 -87 46 -65 -13 -168 -95 -168 -33 0 -87
36 -114 77 l-21 31 -11 -53 c-46 -218 -249 -353 -475 -316 -75 12 -174 52
-217 88 l-24 20 46 12 c39 9 51 9 70 -3 81 -52 259 -60 352 -15 68 32 129 97
156 167 18 44 23 78 23 152 1 111 -18 177 -70 246 -19 24 -34 46 -34 49 0 9
115 63 169 79 88 26 115 22 174 -26 58 -48 67 -58 67 -75 0 -7 -31 -48 -68
-90 -37 -43 -76 -89 -85 -103 -34 -48 -12 -126 43 -155 26 -13 30 -13 44 1 22
21 20 31 -9 56 -14 12 -25 30 -25 41 0 11 33 56 73 101 41 44 79 91 85 103 22
41 14 80 -23 122 l-36 39 78 -20 c43 -11 110 -35 150 -53 l72 -33 -29 -54
c-55 -103 -63 -235 -20 -350 29 -77 79 -131 158 -170 63 -31 73 -33 172 -32
130 0 195 23 273 94 70 63 109 147 115 245 11 180 -83 333 -242 391 -69 25
-194 25 -258 1 l-47 -18 -68 40 c-130 77 -294 128 -426 133 -37 2 -67 5 -67 8
1 16 273 117 277 103 2 -4 12 -22 22 -40 24 -38 240 -214 260 -211 8 2 19 11
25 21 12 20 -9 43 -147 155 -70 57 -97 87 -86 96 2 2 25 6 52 8 38 5 47 3 47
-10 0 -28 41 -62 75 -62 42 0 73 24 96 74 36 79 17 169 -43 206 -61 37 -109
19 -127 -46 -7 -29 -8 -29 -102 -35 -169 -12 -295 -44 -425 -109 l-73 -37 -26
27 -26 27 81 42 c138 72 297 116 443 123 54 3 60 5 79 37 12 19 39 41 62 52
48 22 50 22 100 8z m-268 -58 c-3 -5 -22 -11 -41 -13 -42 -5 -33 9 10 15 17 2
31 5 33 6 2 0 1 -3 -2 -8z m-86 -15 c0 -2 -11 -6 -25 -8 -13 -3 -22 -1 -19 3
5 9 44 13 44 5z m10 -457 c87 -22 284 -115 274 -130 -3 -6 -20 -2 -42 12 -91
53 -279 109 -371 109 -21 0 -46 9 -61 21 l-25 20 75 -7 c41 -4 109 -15 150
-25z m-327 -25 c-61 -16 -129 -45 -182 -78 -47 -30 -72 -34 -48 -8 23 25 117
80 184 107 54 22 59 23 76 8 17 -16 15 -17 -30 -29z m472 8 c-3 -3 -11 0 -18
7 -9 10 -8 11 6 5 10 -3 15 -9 12 -12z m158 -76 c26 -18 49 -18 92 -1 19 8 19
8 3 -12 -10 -11 -18 -23 -18 -28 0 -4 42 -51 93 -104 89 -92 155 -176 145
-186 -2 -2 -23 22 -46 53 -46 63 -148 170 -200 210 l-33 25 -21 -20 -21 -21
99 -99 c55 -54 107 -113 117 -131 29 -51 6 -36 -38 25 -39 54 -125 140 -172
170 -21 14 -25 14 -44 -3 -28 -25 -46 -62 -63 -126 -13 -48 -15 -50 -15 -19
-1 19 13 65 31 103 l31 69 -29 30 -29 31 40 -21 40 -21 17 21 c23 28 11 49
-47 83 -25 15 -45 29 -45 31 0 5 74 -34 113 -59z m353 -51 c96 -47 153 -138
162 -256 13 -183 -105 -314 -294 -327 -181 -12 -297 87 -312 264 -5 65 23 179
53 218 14 19 17 17 72 -31 32 -27 77 -74 101 -104 83 -104 79 -101 102 -89 11
6 20 18 20 26 0 35 -126 184 -210 247 -25 19 -30 27 -17 27 23 0 182 -160 230
-232 40 -61 68 -74 86 -39 8 14 4 28 -19 62 -45 68 -130 165 -184 209 -30 25
-43 42 -35 44 66 23 178 14 245 -19z m122 -40 c14 -16 37 -55 51 -85 22 -48
26 -69 26 -155 0 -89 -3 -106 -28 -156 -26 -53 -104 -139 -126 -139 -6 0 12
21 39 46 27 26 62 72 77 103 23 48 27 69 28 146 0 82 -3 96 -33 157 -30 61
-60 96 -122 141 -15 11 -7 9 19 -5 24 -13 55 -36 69 -53z m-1388 7 c0 -4 -8
-12 -19 -19 -10 -6 -46 -48 -80 -94 -65 -86 -75 -121 -35 -127 16 -2 32 12 67
60 25 35 63 81 86 102 l40 39 21 -24 c38 -44 72 -129 78 -194 9 -122 -38 -231
-124 -281 -61 -36 -176 -45 -251 -20 l-50 17 16 34 c11 24 21 33 31 28 77 -31
166 -27 222 10 45 30 79 102 81 169 1 52 -20 148 -32 148 -3 0 -24 -26 -46
-57 -22 -31 -51 -67 -64 -80 -34 -33 -93 -31 -145 4 -78 51 -77 50 -47 81 22
24 28 26 42 15 22 -18 40 -9 64 32 11 19 44 64 74 100 51 60 71 77 71 57z
m684 -453 c27 -65 83 -143 132 -181 32 -26 133 -78 150 -78 7 0 15 -4 19 -9 9
-16 -66 9 -127 41 -80 43 -142 113 -189 214 -23 51 -45 84 -54 84 -8 0 -25
-15 -37 -33 -12 -19 -36 -43 -53 -54 -31 -21 -63 -23 -169 -11 -26 3 -32 -4
-67 -62 -49 -81 -106 -135 -184 -171 -59 -28 -159 -54 -150 -39 3 4 24 10 47
14 64 10 153 63 208 123 47 51 100 145 100 177 0 22 7 20 42 -9 59 -49 132
-45 185 11 38 41 50 89 33 138 -11 34 -10 37 32 86 l43 50 6 -112 c5 -91 11
-126 33 -179z m153 16 c21 -40 57 -78 103 -108 13 -10 19 -17 13 -17 -23 0
-98 67 -126 112 -16 25 -31 66 -33 89 l-4 44 13 -40 c8 -22 23 -58 34 -80z
m286 -152 c-7 -2 -21 -2 -30 0 -10 3 -4 5 12 5 17 0 24 -2 18 -5z m-1250 -20
c-7 -2 -19 -2 -25 0 -7 3 -2 5 12 5 14 0 19 -2 13 -5z m1189 -125 c-4 -4 -21
-3 -37 1 -30 9 -30 9 7 8 20 -1 34 -5 30 -9z m55 -4 c-3 -3 -12 -4 -19 -1 -8
3 -5 6 6 6 11 1 17 -2 13 -5z m-1204 -21 c-13 -2 -35 -2 -50 0 -16 2 -5 4 22
4 28 0 40 -2 28 -4z"/>
<path d="M545 1615 c-35 -35 -90 -75 -130 -97 -75 -38 -190 -78 -234 -79 -20
0 -15 -4 20 -15 30 -9 59 -28 83 -54 l36 -40 0 -406 c0 -445 1 -441 -61 -485
-18 -12 -48 -26 -68 -29 -20 -4 -29 -9 -21 -12 8 -3 49 -16 90 -29 91 -29 208
-105 253 -163 l33 -43 67 62 c76 71 200 138 290 157 52 11 69 28 27 28 -26 0
-80 48 -96 87 -16 38 -20 307 -5 346 5 13 17 27 26 31 29 11 84 -24 116 -75
l32 -48 51 50 c28 27 65 59 83 72 18 12 33 24 33 27 0 3 -20 18 -45 33 -25 16
-65 48 -89 71 l-43 43 -19 -34 c-36 -68 -109 -104 -142 -71 -8 8 -12 66 -12
196 l0 184 29 29 c25 24 37 29 81 29 84 0 134 -38 132 -101 -1 -31 -33 -99
-57 -119 -14 -11 -7 -17 52 -46 38 -18 90 -53 118 -77 l49 -44 26 24 c30 29
130 86 183 104 20 7 37 16 37 19 0 3 -18 24 -41 45 -22 22 -47 52 -55 67 -13
26 -12 32 12 80 14 29 42 75 61 101 19 27 33 50 31 52 -2 2 -27 -1 -57 -6
-167 -26 -355 -20 -496 18 -89 23 -234 96 -280 140 l-40 38 -60 -60z m224 -95
c36 -18 108 -44 160 -58 87 -24 114 -26 289 -26 105 -1 192 -2 192 -3 0 -2
-14 -25 -31 -52 -51 -84 -48 -143 10 -195 31 -29 26 -40 -31 -67 -28 -13 -69
-36 -90 -51 -21 -16 -40 -28 -42 -28 -3 0 -39 24 -80 54 -42 30 -81 56 -88 58
-10 4 -7 16 10 50 56 113 -6 208 -135 208 -51 0 -105 -25 -121 -57 -5 -10 -12
-101 -16 -203 -6 -176 -5 -187 14 -219 19 -30 20 -35 5 -57 -12 -19 -15 -57
-15 -199 0 -181 6 -212 44 -244 24 -20 20 -27 -31 -46 -69 -25 -161 -82 -215
-133 l-47 -44 -57 55 c-35 35 -87 72 -139 99 l-84 43 23 25 c60 64 60 60 60
490 0 428 1 416 -57 478 -25 26 -28 32 -13 32 39 0 202 89 261 143 l60 54 50
-37 c27 -21 79 -52 114 -70z m284 -571 c29 -23 53 -44 55 -48 1 -4 -20 -29
-47 -55 l-51 -46 -48 50 -48 50 40 44 c23 25 42 45 44 45 1 1 26 -17 55 -40z"/>
<path d="M907 1303 c-4 -3 -7 -65 -7 -137 1 -119 2 -129 16 -111 9 12 12 28 9
40 -20 60 -17 71 24 119 23 26 41 54 41 61 0 25 -65 47 -83 28z m43 -42 c0 -6
-4 -13 -10 -16 -5 -3 -10 1 -10 9 0 9 5 16 10 16 6 0 10 -4 10 -9z"/>
<path d="M961 616 c-17 -20 -10 -77 11 -89 24 -16 48 9 48 49 0 23 -6 37 -19
44 -25 13 -26 13 -40 -4z m39 -46 c0 -22 -4 -28 -15 -24 -8 4 -15 17 -15 30 0
15 6 24 15 24 10 0 15 -10 15 -30z"/>
<path d="M1650 848 c-36 -11 -66 -21 -68 -23 -2 -2 8 -26 22 -54 15 -28 30
-66 34 -85 l7 -33 72 82 72 83 -28 26 c-32 31 -28 30 -111 4z m90 -30 c0 -7
-18 -33 -39 -58 l-39 -44 -21 43 c-13 24 -21 44 -19 46 6 6 74 23 96 24 12 1
22 -5 22 -11z"/>
<path d="M2568 794 c60 -72 112 -153 118 -184 13 -65 -36 -121 -111 -127 -22
-1 -55 -6 -74 -9 -43 -8 -90 15 -116 59 -10 17 -42 57 -71 88 -60 66 -64 63
-64 -41 0 -80 11 -114 48 -153 44 -47 80 -61 157 -61 92 0 172 35 209 91 78
120 43 283 -76 348 l-53 29 33 -40z m-212 -268 c57 -80 83 -91 183 -80 44 6
81 7 81 3 0 -4 -19 -17 -43 -28 -60 -29 -178 -29 -225 -1 -48 30 -72 75 -72
139 0 52 1 53 18 38 10 -9 36 -41 58 -71z"/>
</g>
</svg>
