<?xml version="1.0" standalone="no"?>
<!DOCTYPE svg PUBLIC "-//W3C//DTD SVG 20010904//EN"
 "http://www.w3.org/TR/2001/REC-SVG-20010904/DTD/svg10.dtd">
<svg version="1.0" xmlns="http://www.w3.org/2000/svg"
 width="300.000000pt" height="183.000000pt" viewBox="0 0 300.000000 183.000000"
 preserveAspectRatio="xMidYMid meet">
<metadata>
Created by potrace 1.10, written by Peter Selinger 2001-2011
</metadata>
<g transform="translate(0.000000,183.000000) scale(0.100000,-0.100000)"
fill="#000000" stroke="none">
<path d="M545 1818 c-11 -6 -49 -41 -85 -78 -75 -78 -153 -119 -279 -149 -46
-11 -94 -27 -107 -36 -63 -41 -83 -137 -42 -203 21 -34 84 -71 121 -72 16 0
17 -22 15 -361 l-3 -362 -43 -13 c-24 -7 -53 -21 -64 -31 -71 -64 -61 -196 19
-236 15 -8 55 -22 88 -32 120 -34 202 -87 245 -157 44 -71 95 -97 166 -83 27
5 52 23 101 75 36 38 89 81 117 96 l52 27 49 -37 c171 -131 410 -154 589 -58
68 36 148 116 181 181 21 42 30 51 43 45 9 -4 43 -10 74 -12 72 -5 128 24 164
83 13 22 24 33 24 24 0 -9 18 -53 40 -97 105 -209 342 -307 592 -243 103 27
171 63 240 129 110 104 153 211 153 377 0 88 -5 123 -23 176 -70 202 -226 327
-445 354 -32 3 -57 10 -55 13 45 86 51 111 52 197 1 79 -2 96 -26 141 -83 159
-271 202 -388 90 -31 -30 -45 -35 -120 -46 -107 -14 -227 -44 -304 -76 -33
-13 -60 -24 -61 -24 -1 0 1 26 3 58 3 47 0 63 -20 92 -13 19 -41 43 -62 54
-35 17 -44 18 -130 5 -137 -21 -343 -16 -441 10 -108 28 -190 71 -248 126 -27
25 -60 50 -73 56 -34 12 -84 11 -109 -3z m139 -117 c153 -133 394 -185 708
-151 l121 13 24 -27 c31 -37 29 -53 -15 -122 -21 -32 -48 -76 -60 -96 l-23
-37 55 -60 c87 -95 80 -114 -68 -186 -122 -60 -176 -102 -176 -138 0 -28 -14
-47 -60 -78 -19 -13 -65 -52 -102 -86 -37 -35 -75 -63 -85 -63 -28 0 -61 27
-83 68 l-19 37 -1 -131 c0 -148 -1 -145 77 -173 55 -19 74 -52 57 -98 -8 -24
-23 -33 -114 -63 -141 -47 -201 -82 -282 -162 -75 -75 -104 -84 -138 -45 -109
124 -116 129 -195 167 -44 21 -104 44 -133 51 -55 14 -92 45 -92 79 0 30 39
69 76 76 20 4 49 18 65 31 l29 25 0 384 0 385 -24 24 c-13 13 -37 27 -53 30
-78 17 -105 51 -83 104 14 34 19 37 123 62 134 33 246 98 323 188 49 57 76 55
148 -8z m1657 -167 c32 -16 87 -77 100 -111 5 -13 9 -55 9 -92 0 -79 -33 -158
-81 -192 l-29 -21 27 -33 c27 -32 31 -34 98 -34 138 -2 250 -47 334 -136 92
-97 126 -199 119 -357 -3 -83 -8 -104 -38 -164 -87 -176 -276 -270 -494 -243
-119 15 -231 84 -292 181 -65 103 -84 273 -44 400 18 59 19 64 3 76 -25 18
-30 15 -37 -27 -4 -28 -24 -59 -75 -119 l-70 -81 16 -31 c41 -83 -35 -178
-124 -155 -15 3 -46 26 -70 49 l-42 42 -11 -49 c-57 -266 -357 -392 -620 -261
-96 48 -103 60 -44 72 36 8 52 7 68 -3 77 -49 257 -58 348 -17 65 28 132 100
159 170 18 44 23 78 23 152 1 111 -18 177 -70 246 -19 24 -34 46 -34 49 0 9
115 63 169 79 88 26 115 22 174 -26 58 -48 67 -58 67 -75 0 -7 -31 -48 -68
-90 -90 -103 -102 -122 -102 -158 0 -65 68 -126 105 -95 20 17 19 23 -10 54
-14 15 -25 34 -25 42 0 8 33 52 73 97 41 45 79 92 85 104 21 38 14 80 -19 118
-17 19 -26 35 -19 35 51 0 270 -82 270 -102 0 -5 -11 -30 -24 -56 -71 -140
-54 -331 39 -440 22 -25 63 -54 103 -74 63 -31 73 -33 172 -32 130 0 195 23
273 94 203 185 130 547 -128 637 -65 23 -203 23 -263 0 l-43 -17 -77 45 c-124
72 -256 113 -417 131 l-60 6 50 26 c65 33 219 85 222 75 2 -5 12 -22 22 -39
21 -34 236 -214 256 -214 18 0 38 28 32 44 -3 8 -41 43 -84 78 -109 88 -158
137 -147 148 17 16 87 16 92 0 10 -32 46 -60 77 -60 42 0 73 24 96 74 36 79
17 169 -43 206 -61 37 -105 21 -128 -47 l-11 -30 -107 -6 c-154 -9 -325 -57
-438 -122 l-41 -24 -28 29 -27 28 103 51 c119 59 253 96 388 110 64 6 97 13
102 23 43 77 129 103 210 62z m-395 -514 c84 -20 168 -53 242 -96 68 -40 42
-40 -41 0 -95 45 -201 75 -294 83 -54 4 -77 11 -90 25 -18 20 -17 20 42 13 33
-4 96 -15 141 -25z m-279 -5 c1 -5 -30 -20 -71 -33 -40 -13 -99 -39 -131 -58
-32 -19 -60 -32 -64 -29 -10 11 49 53 134 96 75 38 124 47 132 24z m950 -141
c95 -46 152 -137 161 -255 13 -183 -105 -314 -294 -327 -181 -12 -297 87 -312
264 -5 65 23 179 53 218 14 19 17 17 72 -31 32 -27 77 -74 101 -104 83 -104
79 -101 102 -89 11 6 20 18 20 27 0 27 -87 139 -162 207 -40 36 -68 66 -62 66
19 0 167 -152 218 -222 50 -71 77 -84 95 -49 8 15 5 27 -15 57 -45 67 -96 127
-163 191 -44 42 -60 64 -50 67 65 22 167 14 236 -20z m-1277 -37 c0 -2 -17
-19 -37 -38 l-38 -34 34 38 c33 34 41 42 41 34z m141 -141 c62 -145 18 -325
-96 -392 -36 -21 -64 -28 -121 -32 -69 -4 -158 10 -169 28 -2 4 1 21 8 39 8
22 16 30 27 25 73 -32 166 -28 222 9 47 31 80 103 81 175 0 65 -19 135 -36
129 -7 -2 -27 -23 -45 -48 -63 -86 -80 -99 -125 -99 -38 0 -83 22 -139 68 -16
13 -15 16 13 39 24 20 32 23 44 13 8 -7 22 -10 30 -6 10 3 15 -1 15 -13 0 -17
18 -31 40 -31 4 0 25 23 45 52 21 28 58 73 83 100 l45 49 28 -27 c15 -14 37
-49 50 -78z m-485 -112 c-3 -9 -6 -20 -6 -25 0 -5 -4 -9 -10 -9 -5 0 -10 11
-10 25 0 16 6 25 16 25 11 0 14 -5 10 -16z m229 -134 c22 0 58 9 80 20 46 23
45 23 45 10 0 -6 -11 -22 -25 -35 -48 -49 -192 -26 -225 34 -8 15 -2 14 37 -6
26 -13 64 -23 88 -23z"/>
<path d="M538 1610 c-67 -67 -163 -120 -278 -153 l-83 -24 36 -12 c19 -7 52
-30 71 -52 l36 -39 0 -409 c0 -407 0 -408 -22 -441 -13 -19 -44 -45 -70 -58
l-48 -24 82 -29 c96 -33 206 -105 252 -164 l32 -42 66 62 c74 68 181 128 279
155 l64 17 -35 15 c-20 9 -48 30 -63 48 l-27 32 2 187 3 186 29 3 c42 5 73
-15 108 -70 l31 -48 51 50 c28 28 65 61 83 73 18 12 33 24 33 27 0 3 -14 14
-31 24 -16 10 -57 40 -89 67 l-59 49 -21 -35 c-12 -19 -33 -44 -47 -55 -27
-21 -78 -27 -88 -10 -4 6 -6 97 -5 203 1 225 2 227 93 235 127 10 176 -78 103
-186 l-33 -50 52 -21 c28 -12 80 -44 114 -72 l63 -50 25 18 c70 50 113 74 163
94 30 12 57 24 59 26 2 1 -19 27 -47 57 -35 37 -52 63 -52 81 0 28 32 95 79
165 17 24 29 45 28 46 -1 1 -27 -2 -57 -8 -81 -14 -345 -14 -415 1 -147 31
-266 81 -353 150 -28 23 -53 40 -54 39 -2 -1 -28 -27 -60 -58z"/>
<path d="M907 1303 c-4 -3 -7 -65 -7 -137 0 -123 1 -129 16 -107 13 18 14 28
5 47 -18 41 -13 60 29 109 22 25 40 53 40 60 0 25 -65 47 -83 28z"/>
<path d="M1659 851 c-83 -26 -81 -24 -48 -94 16 -34 29 -70 29 -79 0 -10 3
-18 8 -17 4 0 37 36 74 79 l68 78 -31 26 c-36 30 -29 30 -100 7z"/>
<path d="M2582 778 c65 -80 108 -152 108 -181 0 -64 -43 -106 -116 -113 -22
-2 -54 -6 -73 -10 -44 -9 -90 15 -116 59 -26 45 -116 138 -126 131 -13 -7 -11
-147 2 -181 12 -34 55 -80 89 -98 71 -37 208 -22 278 32 110 83 96 309 -22
378 -59 35 -64 32 -24 -17z"/>
</g>
</svg>
